# xmcd
#
# Track frame offsets:
#	150
#	12785
#	30104
#	41984
#	58673
#	75082
#	89200
#	101283
#	118443
#	138974
#	152437
#	167607
#
# Disc length: 2358 seconds
#
# Revision: 2
# Processed by: cddbd v1.5.1PL0 Copyright (c) Steve Scherf et al.
# Submitted via: audiograbber 1.83.01
#
DISCID=8909340c
DTITLE=Melinda Schneider - Family Tree
DYEAR=2004
DGENRE=Country
TTITLE0=Family Tree
TTITLE1=Sgt. Bean
TTITLE2=Beautiful Thing
TTITLE3=Walk That Wire
TTITLE4=Dream Him Home
TTITLE5=The Healing Power Of Helpless Laughter
TTITLE6=I Wanna Be Married
TTITLE7=Real People
TTITLE8=Goodbye House
TTITLE9=The L Word
TTITLE10=What Was I Thinking
TTITLE11=Spaghetti Is Ready
EXTD=YEAR: 2004
EXTT0=
EXTT1=
EXTT2=
EXTT3=
EXTT4=
EXTT5=
EXTT6=
EXTT7=
EXTT8=
EXTT9=
EXTT10=
EXTT11=
PLAYORDER=
